<svg width="227" height="48" viewBox="0 0 227 48" fill="none" xmlns="http://www.w3.org/2000/svg">
<path d="M148.102 24.1482V42L113.496 33.5292L78.8853 42V24.1482C88.1274 26.0884 100.553 27.1751 113.494 27.1751C126.435 27.1751 138.86 26.0884 148.102 24.1482Z" stroke="#4E74FA" stroke-width="2" stroke-linecap="round" stroke-linejoin="round"/>
<path d="M113.496 6C103.718 6.00023 94.1601 6.6214 86.0309 7.78502C77.9017 8.94865 71.5654 10.6026 67.8244 12.5374C64.0835 14.4722 63.1049 16.6012 65.013 18.6551C66.9212 20.709 71.6312 22.5955 78.5453 24.0763C85.4595 25.557 94.2687 26.5653 103.858 26.9738C113.448 27.3823 123.387 27.1725 132.42 26.3711C141.453 25.5696 149.175 24.2124 154.607 22.4711C160.039 20.7299 162.938 18.6827 162.938 16.5886C162.938 15.1979 161.66 13.821 159.175 12.5362C156.69 11.2515 153.048 10.0842 148.457 9.10098C143.865 8.11773 138.414 7.33781 132.415 6.80575C126.416 6.27369 119.988 5.99985 113.496 6Z" stroke="#4E74FA" stroke-width="2" stroke-linecap="round" stroke-linejoin="round"/>
</svg>
