<svg width="33" height="32" viewBox="0 0 33 32" fill="none" xmlns="http://www.w3.org/2000/svg">
<path d="M24.5 12C27.4455 12 29.8334 9.61216 29.8334 6.66665C29.8334 3.72113 27.4455 1.33331 24.5 1.33331C21.5545 1.33331 19.1667 3.72113 19.1667 6.66665C19.1667 7.16961 19.2363 7.6563 19.3664 8.11763L12.2887 12.2463C11.3222 11.2708 9.98169 10.6666 8.50002 10.6666C5.5545 10.6666 3.16669 13.0545 3.16669 16C3.16669 18.9455 5.5545 21.3333 8.50002 21.3333C9.98169 21.3333 11.3222 20.7291 12.2887 19.7537L19.3664 23.8823C19.2363 24.3437 19.1667 24.8304 19.1667 25.3333C19.1667 28.2788 21.5545 30.6666 24.5 30.6666C27.4455 30.6666 29.8334 28.2788 29.8334 25.3333C29.8334 22.3878 27.4455 20 24.5 20C23.0184 20 21.6778 20.6042 20.7113 21.5796L13.6336 17.451C13.7637 16.9896 13.8334 16.5029 13.8334 16C13.8334 15.497 13.7637 15.0103 13.6336 14.549L20.7113 10.4203C21.6778 11.3958 23.0184 12 24.5 12Z" fill="white"/>
</svg>
