<svg width="21" height="20" viewBox="0 0 21 20" fill="none" xmlns="http://www.w3.org/2000/svg">
<path d="M10.1873 9.68745H10.8123M10.1873 10.3124H10.8123M4.35397 9.68745H4.97897M4.35397 10.3124H4.97897M16.0206 9.68745H16.6456M16.0206 10.3124H16.6456M11.3333 10C11.3333 10.4602 10.9602 10.8333 10.5 10.8333C10.0398 10.8333 9.66667 10.4602 9.66667 10C9.66667 9.53976 10.0398 9.16667 10.5 9.16667C10.9602 9.16667 11.3333 9.53976 11.3333 10ZM5.5 10C5.5 10.4602 5.12691 10.8333 4.66667 10.8333C4.20643 10.8333 3.83334 10.4602 3.83334 10C3.83334 9.53976 4.20643 9.16667 4.66667 9.16667C5.12691 9.16667 5.5 9.53976 5.5 10ZM17.1667 10C17.1667 10.4602 16.7936 10.8333 16.3333 10.8333C15.8731 10.8333 15.5 10.4602 15.5 10C15.5 9.53976 15.8731 9.16667 16.3333 9.16667C16.7936 9.16667 17.1667 9.53976 17.1667 10Z" stroke="white" stroke-width="1.67" stroke-linecap="round"/>
</svg>
