<svg width="33" height="32" viewBox="0 0 33 32" fill="none" xmlns="http://www.w3.org/2000/svg">
<path d="M17.8333 11.832C20.1336 11.24 21.8333 9.15183 21.8333 6.66671C21.8333 3.72119 19.4455 1.33337 16.5 1.33337C13.5545 1.33337 11.1667 3.72119 11.1667 6.66671C11.1667 9.15183 12.8664 11.24 15.1667 11.832V14.6667H11.1667C8.95752 14.6667 7.16666 16.4576 7.16666 18.6667V20.1681C4.86635 20.7601 3.16666 22.8483 3.16666 25.3334C3.16666 28.2789 5.55447 30.6667 8.49999 30.6667C11.4455 30.6667 13.8333 28.2789 13.8333 25.3334C13.8333 22.8483 12.1336 20.7601 9.83332 20.1681V18.6667C9.83332 17.9303 10.4303 17.3334 11.1667 17.3334H21.8333C22.5697 17.3334 23.1667 17.9303 23.1667 18.6667V20.1681C20.8664 20.7601 19.1667 22.8483 19.1667 25.3334C19.1667 28.2789 21.5545 30.6667 24.5 30.6667C27.4455 30.6667 29.8333 28.2789 29.8333 25.3334C29.8333 22.8483 28.1336 20.7601 25.8333 20.1681V18.6667C25.8333 16.4576 24.0425 14.6667 21.8333 14.6667H17.8333V11.832Z" fill="white"/>
</svg>
