<svg width="33" height="32" viewBox="0 0 33 32" fill="none" xmlns="http://www.w3.org/2000/svg">
<path d="M23.5572 14.2761L15.3541 22.4792C14.0989 20.2472 12.2528 18.4011 10.0208 17.1459L20.3248 6.84182C20.8528 6.3138 21.1169 6.0498 21.4213 5.95088C21.6891 5.86387 21.9775 5.86387 22.2453 5.95088C22.5498 6.0498 22.8138 6.31381 23.3418 6.84183L25.6582 9.15818C26.1862 9.6862 26.4502 9.95021 26.5491 10.2546C26.6361 10.5224 26.6361 10.8109 26.5491 11.0787C26.4502 11.3831 26.1862 11.6471 25.6582 12.1752L25.4428 12.3905L27.6381 14.5858C28.4191 15.3668 28.4191 16.6332 27.6381 17.4142L24.1095 20.9428C23.5888 21.4635 22.7446 21.4635 22.2239 20.9428C21.7032 20.4221 21.7032 19.5779 22.2239 19.0572L25.281 16L23.5572 14.2761Z" fill="white"/>
<path d="M8.18147 19.6222L7.18256 22.619C6.74829 23.9217 6.53116 24.5731 6.68563 25.0063C6.82005 25.3833 7.1167 25.6799 7.49366 25.8144C7.92684 25.9688 8.57825 25.7517 9.88102 25.3174L12.8778 24.3185C13.0288 24.2682 13.148 24.2284 13.2477 24.1931C12.1637 22.0669 10.4331 20.3363 8.30685 19.2523C8.27156 19.3519 8.23179 19.4712 8.18147 19.6222Z" fill="white"/>
</svg>
