<svg width="33" height="32" viewBox="0 0 33 32" fill="none" xmlns="http://www.w3.org/2000/svg">
<path d="M10.7768 8.39124C11.0267 7.86906 11.1667 7.28422 11.1667 6.66669C11.1667 4.45755 9.37581 2.66669 7.16667 2.66669C4.95753 2.66669 3.16667 4.45755 3.16667 6.66669C3.16667 8.87583 4.95753 10.6667 7.16667 10.6667C7.7842 10.6667 8.36904 10.5268 8.89122 10.2769L10.9379 12.3235C10.2398 13.3774 9.83333 14.6412 9.83333 16C9.83333 17.3588 10.2398 18.6226 10.9379 19.6765L9.19073 21.4237C8.97042 21.3648 8.73888 21.3334 8.5 21.3334C7.02724 21.3334 5.83333 22.5273 5.83333 24C5.83333 25.4728 7.02724 26.6667 8.5 26.6667C9.97276 26.6667 11.1667 25.4728 11.1667 24C11.1667 23.7611 11.1353 23.5296 11.0763 23.3093L12.8235 21.5622C13.8774 22.2602 15.1412 22.6667 16.5 22.6667C17.8588 22.6667 19.1226 22.2602 20.1765 21.5622L22.2232 23.6088C21.9733 24.131 21.8333 24.7158 21.8333 25.3334C21.8333 27.5425 23.6242 29.3334 25.8333 29.3334C28.0425 29.3334 29.8333 27.5425 29.8333 25.3334C29.8333 23.1242 28.0425 21.3334 25.8333 21.3334C25.2158 21.3334 24.631 21.4733 24.1088 21.7232L22.0621 19.6765C22.7602 18.6226 23.1667 17.3588 23.1667 16C23.1667 14.6412 22.7602 13.3774 22.0621 12.3235L23.8093 10.5764C24.0296 10.6353 24.2611 10.6667 24.5 10.6667C25.9728 10.6667 27.1667 9.47278 27.1667 8.00002C27.1667 6.52726 25.9728 5.33335 24.5 5.33335C23.0272 5.33335 21.8333 6.52726 21.8333 8.00002C21.8333 8.2389 21.8647 8.47044 21.9237 8.69075L20.1765 10.4379C19.1226 9.73986 17.8588 9.33335 16.5 9.33335C15.1412 9.33335 13.8774 9.73986 12.8235 10.4379L10.7768 8.39124Z" fill="white"/>
</svg>
