<svg width="33" height="32" viewBox="0 0 33 32" fill="none" xmlns="http://www.w3.org/2000/svg">
<path fill-rule="evenodd" clip-rule="evenodd" d="M1.83334 16C1.83334 7.8998 8.39983 1.33331 16.5 1.33331C24.6002 1.33331 31.1667 7.8998 31.1667 16C31.1667 24.1002 24.6002 30.6666 16.5 30.6666C8.39983 30.6666 1.83334 24.1002 1.83334 16ZM16.5 5.33331C17.2364 5.33331 17.8333 5.93027 17.8333 6.66665V11.8518C17.8333 12.5882 17.2364 13.1852 16.5 13.1852C15.7636 13.1852 15.1667 12.5882 15.1667 11.8518V6.66665C15.1667 5.93027 15.7636 5.33331 16.5 5.33331ZM25.8333 17.3333C26.5697 17.3333 27.1667 16.7364 27.1667 16C27.1667 15.2636 26.5697 14.6666 25.8333 14.6666H20.6482C19.9118 14.6666 19.3148 15.2636 19.3148 16C19.3148 16.7364 19.9118 17.3333 20.6482 17.3333H25.8333ZM16.5 18.8148C17.2364 18.8148 17.8333 19.4117 17.8333 20.1481V25.3333C17.8333 26.0697 17.2364 26.6666 16.5 26.6666C15.7636 26.6666 15.1667 26.0697 15.1667 25.3333V20.1481C15.1667 19.4117 15.7636 18.8148 16.5 18.8148ZM12.3519 17.3333C13.0882 17.3333 13.6852 16.7364 13.6852 16C13.6852 15.2636 13.0882 14.6666 12.3519 14.6666H7.16668C6.4303 14.6666 5.83334 15.2636 5.83334 16C5.83334 16.7364 6.4303 17.3333 7.16668 17.3333H12.3519Z" fill="white"/>
</svg>
