<svg width="33" height="32" viewBox="0 0 33 32" fill="none" xmlns="http://www.w3.org/2000/svg">
<path d="M16.5 2.66663C11.3453 2.66663 7.16667 6.8453 7.16667 12C7.16667 13.3814 7.46764 14.6961 8.00885 15.8791C8.34594 16.616 8.72788 17.3402 9.09304 18.0299L9.13288 18.1051C9.48948 18.7785 9.82903 19.4197 10.1315 20.0647C10.7601 21.4047 11.1667 22.6372 11.1667 23.8807C11.1667 24.683 11.817 25.3333 12.6192 25.3333H20.3808C21.183 25.3333 21.8333 24.683 21.8333 23.8807C21.8333 22.6372 22.2399 21.4047 22.8685 20.0647C23.171 19.4197 23.5105 18.7786 23.8671 18.1052L23.907 18.0299C24.2721 17.3402 24.6541 16.616 24.9911 15.8791C25.5324 14.6961 25.8333 13.3814 25.8333 12C25.8333 6.8453 21.6547 2.66663 16.5 2.66663Z" fill="white"/>
<path d="M12.5 26.6666C11.7636 26.6666 11.1667 27.2636 11.1667 28C11.1667 28.7363 11.7636 29.3333 12.5 29.3333H20.5C21.2364 29.3333 21.8333 28.7363 21.8333 28C21.8333 27.2636 21.2364 26.6666 20.5 26.6666H12.5Z" fill="white"/>
</svg>
